# xmcd CD database file
#
# Track frame offsets:
#	150
#	30611
#	40922
#	67283
#	81686
#	128667
#	154561
#	169489
#	195083
#	220220
#	239349
#	274089
#
# Disc length: 3778 seconds
#
# Revision: 0
# Processed by: cddbd v1.5.2PL0 Copyright (c) Steve Scherf et al.
# Submitted via: CDex 1.51
#
DISCID=ab0ec00c
DTITLE=Forest Stewart - Free Solo
DYEAR=2011
DGENRE=Jazz
TTITLE0=We Shall Overcome
TTITLE1=Serenade
TTITLE2=Shenandoah
TTITLE3=Here There And  Everywhere
TTITLE4=Somewhere
TTITLE5=My Wild Irish Rose
TTITLE6=Cinema Paradiso Ove Theme
TTITLE7=Winter's First Kiss
TTITLE8=Both Sides of Now
TTITLE9=My Romance
TTITLE10=We Shall Overcome Reprise 
TTITLE11=Hidden Track
EXTD=YEAR: 2011
EXTT0=
EXTT1=
EXTT2=
EXTT3=
EXTT4=
EXTT5=
EXTT6=
EXTT7=
EXTT8=
EXTT9=
EXTT10=
EXTT11=
PLAYORDER=
